<svg width="24" height="24" viewBox="0 0 24 24" fill="none" xmlns="http://www.w3.org/2000/svg">
<path d="M14.3 10.55L21.26 14.61L18.29 15.46L20.41 19.14L18.68 20.14L16.56 16.46L14.34 18.61L14.3 10.55Z" fill="#000091"/>
<path d="M20.79 12.47L20.76 9V4C20.76 3.45 20.31 3 19.76 3H4C3.45 3 3 3.45 3 4V17.1C3 17.65 3.45 18.1 4 18.1H12.88L12.83 7.83L18.76 11.29V11.31L20.76 12.48V12.46L20.79 12.48V12.47ZM15.38 5L8.31 9.08L4.99 10.99V5H15.38ZM5 13.3L8.8 11.12L11.39 16.11H5V13.3Z" fill="#000091"/>
</svg>
