<svg width="24" height="24" viewBox="0 0 24 24" fill="none" xmlns="http://www.w3.org/2000/svg">
<path d="M7.66 22.69H21.31C21.86 22.69 22.31 22.26 22.31 21.74V21.19L11.62 14.94L7.66 22.7V22.69Z" fill="#000091"/>
<path d="M2 9.15V21.74C2 22.27 2.45 22.69 3 22.69H5.41L9.88 13.93L2 9.15Z" fill="#000091"/>
<path d="M22.31 18.86V11.79L17.86 16.23L22.31 18.86Z" fill="#000091"/>
<path d="M12.65 11.72C11.68 10.75 11.03 9.54 10.77 8.2C10.73 8 10.72 7.8 10.7 7.61H3.32L16.13 15.2L12.65 11.72Z" fill="#000091"/>
<path d="M14.06 10.31L17.51 13.75L20.96 10.31C21.64 9.63 22.11 8.76 22.3 7.82C22.49 6.87 22.39 5.9 22.02 5.01C21.65 4.12 21.03 3.36 20.22 2.82C19.42 2.28 18.47 2 17.51 2C16.55 2 15.6 2.29 14.8 2.82C14 3.36 13.37 4.12 13 5.01C12.63 5.9 12.53 6.88 12.72 7.82C12.91 8.76 13.37 9.63 14.06 10.31ZM16.74 6.1C16.94 5.9 17.22 5.78 17.51 5.78C17.8 5.78 18.07 5.89 18.28 6.1C18.48 6.3 18.6 6.58 18.6 6.87C18.6 7.16 18.49 7.43 18.28 7.64C18.08 7.84 17.8 7.96 17.51 7.96C17.22 7.96 16.95 7.85 16.74 7.64C16.54 7.44 16.42 7.16 16.42 6.87C16.42 6.58 16.53 6.31 16.74 6.1Z" fill="#000091"/>
</svg>
