<svg width="24" height="24" viewBox="0 0 24 24" fill="none" xmlns="http://www.w3.org/2000/svg">
<path d="M14.7406 9.78218H13.615V13.901H14.7406C15.9459 13.901 16.8225 13.0198 16.8225 11.8416C16.8225 10.6634 15.9459 9.78218 14.7406 9.78218Z" fill="#000091"/>
<path d="M20.9266 3H2.99614C2.44826 3 2 3.44554 2 3.9901V19.8317C2 20.3762 2.44826 20.8218 2.99614 20.8218H20.9266C21.4745 20.8218 21.9227 20.3762 21.9227 19.8317V3.9901C21.9227 3.44554 21.4745 3 20.9266 3ZM7.89713 15.8713C6.37304 15.8713 5.40679 15.1782 4.7593 14.0198L6.383 13.0297C6.78146 13.8614 7.2098 14.2376 7.89713 14.2376C8.48485 14.2376 8.91319 13.8812 8.91319 13.3465C8.91319 12.7624 8.43505 12.4554 7.75767 12.4554H6.53243V10.8218H7.70787C8.17605 10.8218 8.58447 10.5941 8.58447 10.1188C8.58447 9.69307 8.25574 9.45545 7.78756 9.45545C7.22972 9.45545 6.901 9.76238 6.62208 10.2079L5.11791 9.27723C5.69567 8.37624 6.58223 7.82178 7.92702 7.82178C9.39134 7.82178 10.4672 8.61386 10.4672 9.89109C10.4672 10.5842 10.1882 11.1683 9.68022 11.5644C10.3974 11.9703 10.7859 12.6238 10.7859 13.4257C10.7859 14.9208 9.55072 15.8713 7.89713 15.8713ZM14.7306 15.6535H11.6625V8.0297H14.7306C17.1712 8.0297 18.8447 9.78218 18.8447 11.8416C18.8447 13.901 17.1811 15.6535 14.7306 15.6535Z" fill="#000091"/>
</svg>
