<svg width="24" height="24" viewBox="0 0 24 24" fill="none" xmlns="http://www.w3.org/2000/svg">
<path d="M14.7406 9.78218H13.615V13.901H14.7406C15.9459 13.901 16.8225 13.0198 16.8225 11.8416C16.8225 10.6634 15.9459 9.78218 14.7406 9.78218Z" fill="#000091"/>
<path d="M20.9266 3H2.99614C2.44826 3 2 3.44554 2 3.9901V19.8317C2 20.3762 2.44826 20.8218 2.99614 20.8218H20.9266C21.4745 20.8218 21.9227 20.3762 21.9227 19.8317V3.9901C21.9227 3.44554 21.4745 3 20.9266 3ZM5.23744 15.6535V14L7.87721 11.4851C8.24578 11.1386 8.60439 10.7327 8.60439 10.2475C8.60439 9.76238 8.2657 9.45545 7.79752 9.45545C7.12014 9.45545 6.73165 9.92079 6.35312 10.5545L4.85892 9.64356C5.52633 8.55446 6.53243 7.82178 7.98679 7.82178C9.44115 7.82178 10.4871 8.69307 10.4871 10.0495C10.4871 11.099 9.78979 11.9109 9.16223 12.4851L7.52856 14H10.6863V15.6535H5.23744ZM14.7306 15.6535H11.6625V8.0297H14.7306C17.1712 8.0297 18.8447 9.78218 18.8447 11.8416C18.8447 13.901 17.1811 15.6535 14.7306 15.6535Z" fill="#000091"/>
</svg>
