<svg width="24" height="24" viewBox="0 0 24 24" fill="none" xmlns="http://www.w3.org/2000/svg">
<path d="M20.3243 17.6876L6.53354 9.52363H11.1872C11.007 9.10343 10.8569 8.67322 10.7668 8.213C10.7268 8.01291 10.7168 7.81281 10.6968 7.61271H3.00078C2.45035 7.61271 2 8.04292 2 8.56317V21.7495C2 22.2798 2.45035 22.7 3.00078 22.7H21.3251C21.8755 22.7 22.3259 22.2698 22.3259 21.7495V11.7847L20.3243 13.7857V17.6876ZM4.00156 10.374L9.89617 13.9458L6.39343 20.7991H4.00156V10.364V10.374ZM8.63518 20.8091L11.6275 14.9463L20.3243 20.0287V20.7991H8.63518V20.8091Z" fill="#000091"/>
<path d="M22.0356 5.00145C21.6654 4.11102 21.0449 3.35065 20.2342 2.81039C18.623 1.72987 16.4213 1.72987 14.81 2.81039C13.9994 3.35065 13.3789 4.10102 13.0086 5.00145C12.6383 5.89188 12.5382 6.87235 12.7284 7.82281C12.9185 8.77327 13.3789 9.63369 14.0594 10.324L17.5121 13.7757L20.9648 10.324C21.6453 9.63369 22.1157 8.77327 22.2958 7.82281C22.486 6.87235 22.3859 5.90189 22.0156 5.00145H22.0356ZM20.2543 7.41261C20.1442 7.95288 19.884 8.45312 19.4937 8.84331L17.5221 10.8143L15.5506 8.84331C15.1603 8.45312 14.8901 7.96288 14.79 7.41261C14.6799 6.87235 14.7399 6.31208 14.9501 5.80184C15.1603 5.29159 15.5206 4.86138 15.9809 4.55123C16.4413 4.24108 16.9717 4.08101 17.5321 4.08101C18.0926 4.08101 18.623 4.24108 19.0833 4.55123C19.5437 4.86138 19.894 5.29159 20.1141 5.80184C20.3243 6.31208 20.3844 6.87235 20.2743 7.41261H20.2543Z" fill="#000091"/>
</svg>
