<svg width="24" height="24" viewBox="0 0 24 24" fill="none" xmlns="http://www.w3.org/2000/svg">
<path d="M21 3H3C2.45 3 2 3.45 2 4V20C2 20.55 2.45 21 3 21H21C21.55 21 22 20.55 22 20V4C22 3.45 21.55 3 21 3ZM4 19V5H20V19H4Z" fill="#000091"/>
<path d="M5.24957 14.11L7.89957 11.57C8.26957 11.22 8.62957 10.81 8.62957 10.32C8.62957 9.82999 8.28957 9.51999 7.81957 9.51999C7.13957 9.51999 6.74957 9.98999 6.36957 10.63L4.86957 9.70999C5.53957 8.60999 6.54957 7.86999 8.00957 7.86999C9.46957 7.86999 10.5196 8.74999 10.5196 10.12C10.5196 11.18 9.81957 12 9.18957 12.58L7.54957 14.11H10.7196V15.78H5.25957V14.11H5.24957Z" fill="#000091"/>
<path d="M11.6996 8.08001H14.7796C17.2296 8.08001 18.9096 9.85001 18.9096 11.93C18.9096 14.01 17.2396 15.78 14.7796 15.78H11.6996V8.08001ZM13.6496 9.85001V14.01H14.7796C15.9896 14.01 16.8696 13.12 16.8696 11.93C16.8696 10.74 15.9896 9.85001 14.7796 9.85001H13.6496Z" fill="#000091"/>
</svg>
