<svg width="24" height="24" viewBox="0 0 24 24" fill="none" xmlns="http://www.w3.org/2000/svg">
<path d="M21 3H3C2.45 3 2 3.45 2 4V20C2 20.55 2.45 21 3 21H21C21.55 21 22 20.55 22 20V4C22 3.45 21.55 3 21 3ZM4 19V5H20V19H4Z" fill="#000091"/>
<path d="M9.72027 11.64C10.2403 11.23 10.5103 10.65 10.5103 9.94999C10.5103 8.65999 9.43027 7.85999 7.96027 7.85999C6.62027 7.85999 5.73027 8.41999 5.14027 9.32999L6.65027 10.27C6.93027 9.81999 7.26027 9.50999 7.82027 9.50999C8.29027 9.50999 8.62027 9.74999 8.62027 10.18C8.62027 10.66 8.21027 10.89 7.74027 10.89H6.56027V12.54H7.79027C8.46027 12.54 8.95027 12.85 8.95027 13.44C8.95027 13.98 8.52027 14.34 7.93027 14.34C7.24027 14.34 6.81027 13.96 6.41027 13.12L4.78027 14.12C5.43027 15.29 6.40027 15.99 7.93027 15.99C9.59027 15.99 10.8303 15.02 10.8303 13.52C10.8303 12.71 10.4303 12.05 9.72027 11.64Z" fill="#000091"/>
<path d="M14.7802 8.07996H11.7002V15.78H14.7802C17.2302 15.78 18.9102 14.01 18.9102 11.93C18.9102 9.84996 17.2402 8.07996 14.7802 8.07996ZM14.7902 14H13.6602V9.83996H14.7902C16.0002 9.83996 16.8802 10.72 16.8802 11.92C16.8802 13.12 16.0002 14 14.7902 14Z" fill="#000091"/>
</svg>
