<svg xmlns="http://www.w3.org/2000/svg" width="112" height="112" fill="none" viewBox="0 0 112 112"><rect width="112" height="112" fill="url(#pattern0_3473_72332)" rx="4"/><defs><clipPath id="clip0_3473_72332"><path fill="#fff" d="M0 0H500V500H0z"/></clipPath><clipPath id="clip1_3473_72332"><path fill="#fff" d="M0 0H103.068V112.438H0z" transform="translate(62.932 162.199)"/></clipPath><pattern id="pattern0_3473_72332" width="1" height="1" patternTransform="matrix(115 0 0 115 -1.5 -1.5)" patternUnits="userSpaceOnUse" preserveAspectRatio="none" viewBox="0 0 500 500"><g id="pattern0_3473_72332_inner" clip-path="url(#clip0_3473_72332)"><path fill="#f5f5fe" d="M0 0H500V500H0z"/><rect width="383" height="381" x="-77" y="51" fill="#fff" rx="12"/><path fill="#000091" d="M-77 63C-77 56.3726 -71.6274 51 -65 51H294C300.627 51 306 56.3726 306 63V117H-77V63Z"/><text xml:space="preserve" fill="#000091" font-family="Marianne" font-size="39.4074" font-weight="bold" letter-spacing="0em" style="white-space:pre"><tspan x="-16" y="342.741">cartes.gouv.fr</tspan></text><rect width="383" height="381" x="204" y="160" fill="#fff" rx="12"/><path fill="#7da727" d="M204 172C204 165.373 209.373 160 216 160H575C581.627 160 587 165.373 587 172V226H204V172Z"/><path d="M262 314H511V407H262z"/><g clip-path="url(#clip1_3473_72332)"><path fill="#e1000f" d="M166 246.527H156.63V255.897H166V246.527ZM156.63 218.418H147.26V227.787H156.63V218.418ZM147.26 180.938H137.891V190.308H147.26V180.938ZM109.781 180.938H100.411V190.308H109.781V180.938ZM137.891 199.678H128.521V209.048H137.891V199.678ZM81.672 190.308H72.302V199.678H81.672V190.308ZM91.042 237.157H81.672V246.527H91.042V237.157ZM91.042 209.048H81.672V218.418H91.042V209.048ZM119.151 265.267H109.781V274.636H119.151V265.267ZM72.302 255.897H62.932V265.267H72.302V255.897ZM137.891 227.787H128.521V237.157H137.891V227.787ZM119.151 162.199H109.781V171.569H119.151V162.199ZM119.151 209.048H109.781V218.418H119.151V209.048ZM100.411 246.527H91.042V255.897H100.411V246.527ZM109.781 227.787H100.411V237.157H109.781V227.787Z"/><path fill="#fff" d="M128.521 209.048V199.678H119.151V218.418H137.891V209.048H128.521ZM100.411 237.157V246.527H109.781V237.157H100.411ZM128.521 180.938H119.151V190.308H128.521V180.938ZM91.042 190.308H81.672V199.678H91.042V190.308ZM100.411 199.678H91.042V209.048H100.411V199.678ZM137.891 190.308H128.521V199.678H137.891V190.308ZM109.781 209.048H100.411V218.418H109.781V209.048ZM147.26 218.418H137.891V237.157H147.26V218.418ZM109.781 218.418V237.157H119.151V218.418H109.781Z"/><path fill="#000091" d="M147.26 246.527V237.157H128.521V246.527H147.26ZM147.26 265.267H137.891V274.636H147.26V265.267ZM156.63 227.787H147.26V237.157H156.63V227.787ZM137.891 180.938H128.521V190.308H137.891V180.938ZM119.151 180.938H128.521V171.569H100.411V180.938H109.781V190.308H100.411V180.938H81.672V190.308H91.042V199.678H100.411V209.048H119.151V199.678H128.521V190.308H119.151V180.938ZM147.26 180.938V190.308H137.891V218.418H147.26V199.678H156.63V180.938H147.26Z"/><path fill="#000091" d="M72.302 199.678V209.048H91.042V199.678L72.302 199.678ZM72.302 190.308H62.932V199.678H72.302V190.308ZM81.672 237.157H72.302V246.527H81.672V237.157ZM100.411 265.267H91.042V274.636H100.411V265.267ZM128.521 255.897H119.151V265.267H128.521V255.897ZM119.151 218.418V237.157H128.521V227.787H137.891V218.418H119.151ZM100.411 227.787H109.781V218.418H100.411V209.048H91.042V227.787H81.672V237.157H91.042V246.527H100.411V227.787ZM119.151 237.157H109.781V246.527H119.151V237.157ZM109.781 246.527H100.411V255.897H109.781V246.527Z"/></g><rect width="160" height="160" x="154" y="138" fill="#000091" rx="80"/><path fill="#fff" d="M250 234V218L270 238L250 258V242H202V234H250ZM218 178V193.996L266 194V202H218V218L198 198L218 178Z"/></g></pattern></defs></svg>